<?xml version="1.0" encoding="UTF-8" standalone="no"?>
<!-- Created with Inkscape (http://www.inkscape.org/) -->

<svg
   version="1.1"
   id="svg822"
   width="585.59998"
   height="314.39999"
   viewBox="0 0 585.59998 314.39999"
   sodipodi:docname="logo_tcc.svg"
   inkscape:version="1.1.2 (b8e25be833, 2022-02-05)"
   xmlns:inkscape="http://www.inkscape.org/namespaces/inkscape"
   xmlns:sodipodi="http://sodipodi.sourceforge.net/DTD/sodipodi-0.dtd"
   xmlns="http://www.w3.org/2000/svg"
   xmlns:svg="http://www.w3.org/2000/svg">
  <defs
     id="defs826" />
  <sodipodi:namedview
     id="namedview824"
     pagecolor="#505050"
     bordercolor="#eeeeee"
     borderopacity="1"
     inkscape:pageshadow="0"
     inkscape:pageopacity="0"
     inkscape:pagecheckerboard="0"
     showgrid="false"
     inkscape:zoom="1.2329235"
     inkscape:cx="304.96619"
     inkscape:cy="135.85595"
     inkscape:window-width="1920"
     inkscape:window-height="991"
     inkscape:window-x="-9"
     inkscape:window-y="-9"
     inkscape:window-maximized="1"
     inkscape:current-layer="g828" />
  <g
     inkscape:groupmode="layer"
     inkscape:label="Image"
     id="g828">
    <path
       id="rect1185"
       style="fill:#ffffff;stroke-width:1.10692"
       d="M 263.64258 35.523438 C 261.87325 35.569837 260.17004 35.862368 259.85742 36.173828 C 259.54482 36.485298 259.11063 44.180911 258.89062 53.275391 C 258.50675 69.144151 258.42613 69.8125 256.89062 69.8125 C 255.35512 69.8125 255.2745 69.144151 254.89062 53.275391 C 254.67063 44.180911 254.26227 36.515031 253.98438 36.238281 C 253.70647 35.961531 251.95446 35.673909 250.0918 35.599609 C 247.2913 35.487929 246.37471 35.847301 244.79688 37.681641 C 242.93179 39.849951 242.89062 40.241846 242.89062 55.009766 C 242.89063 68.716376 242.30412 73.211888 240.97266 69.742188 C 240.70656 69.048717 240.47884 62.300104 240.46484 54.746094 C 240.43782 40.157724 239.9858 38.210938 236.63281 38.210938 C 235.70369 38.210938 233.22844 39.910099 231.09375 42.011719 C 224.57853 48.426099 224.34798 49.875323 224.64844 82.726562 C 224.86348 106.23875 225.0985 110.92497 226.14648 112.61133 C 226.83006 113.71133 228.0461 115.69172 228.84766 117.01172 C 230.28323 119.3758 236.08072 123.68919 239.26172 124.75977 C 240.15716 125.06117 248.65876 125.24156 258.1543 125.16016 L 275.41992 125.01172 L 279.95508 121.58594 C 282.44954 119.70169 284.49023 117.74914 284.49023 117.24805 C 284.49023 116.74694 284.97922 115.76887 285.57812 115.07422 C 286.17703 114.37957 287.28809 111.46566 288.04688 108.59766 C 289.25039 104.04874 289.38906 100.06491 289.13672 77.396484 L 288.84766 51.412109 L 286.63281 47.412109 C 284.06939 42.782859 279.30066 38.210938 277.0332 38.210938 C 273.79618 38.210938 273.34253 40.251849 273.30273 55.011719 C 273.26754 68.082479 272.68856 72.273799 271.13281 70.724609 C 270.77889 70.372179 270.30984 62.924108 270.08984 54.173828 C 269.63356 36.025808 269.40672 35.372298 263.64258 35.523438 z M 298.25586 73.564453 L 295.28906 73.8125 L 294.79883 92.611328 C 294.28755 112.20441 293.55747 118.15682 291.20117 121.95117 C 289.28315 125.03976 285.96057 128.61133 285.00391 128.61133 C 284.57088 128.61133 283.64778 129.10195 282.95312 129.70117 C 279.50831 132.67274 274.22931 133.41211 256.44531 133.41211 C 238.51435 133.41211 237.06705 133.2037 230.49023 129.67383 C 225.22353 126.84711 220.49023 120.48562 220.49023 116.23438 C 220.49023 115.1739 220.12945 114.08443 219.68945 113.8125 C 219.19312 113.50574 218.88495 106.12392 218.87695 94.365234 C 218.87022 83.941201 218.54793 74.911178 218.16016 74.298828 C 217.26639 72.887398 210.23681 73.53182 209.14844 75.125 C 208.71607 75.75798 208.55762 84.565855 208.76758 96.210938 C 209.14627 117.21582 209.33768 118.46518 213.42578 126.47852 C 215.89901 131.32647 222.48002 137.17729 228.95898 140.28906 C 234.07234 142.74494 235.3111 143.01172 241.61133 143.01172 C 250.53282 143.01172 251.68945 143.60812 251.68945 148.21094 C 251.68945 152.68232 250.47676 153.41211 243.03125 153.41211 C 235.79277 153.41211 234.2958 154.57048 233.60156 160.71289 C 233.15881 164.63011 233.31291 165.434 234.79102 166.91211 C 236.43295 168.55407 237.16428 168.61133 256.73633 168.61133 C 280.25444 168.61133 280.1216 168.64607 280.0332 162.40039 C 279.99449 159.66678 279.42844 157.6912 278.17969 155.9375 C 276.4702 153.53674 276.11552 153.41079 271.03516 153.40039 C 262.49257 153.38293 262.08984 153.14882 262.08984 148.21094 C 262.08984 143.18564 262.37875 143.03984 272.24609 143.02344 C 277.99644 143.01386 279.51815 142.67988 284.64453 140.30664 C 291.38647 137.18548 297.79608 131.48505 300.5 126.20508 C 303.62231 120.10815 304.48748 112.95723 304.48828 93.240234 C 304.4892 75.761091 304.42706 75.034449 302.85547 74.193359 C 301.95684 73.712429 299.88723 73.429003 298.25586 73.564453 z M 47.289062 156.21094 L 47.039062 157.9707 C 46.901432 158.938 47.185592 160.47002 47.669922 161.375 C 48.550112 163.01965 48.584929 163.02046 122.7207 162.81641 L 196.89062 162.61133 L 196.89062 159.41211 L 196.89062 156.21094 L 122.08984 156.21094 L 47.289062 156.21094 z M 316.89062 156.21094 L 316.63086 158.47852 C 316.48805 159.72569 316.56569 161.25608 316.80469 161.87891 C 317.1751 162.84418 328.16184 163.01172 391.23633 163.01172 C 465.03471 163.01172 465.23531 163.00795 466.11133 161.37109 C 466.59444 160.46839 466.87786 158.938 466.74023 157.9707 L 466.49023 156.21094 L 391.68945 156.21094 L 316.89062 156.21094 z M 366.89844 188.74805 C 365.39681 188.98018 365.16212 189.6398 364.89062 194.40625 C 364.61471 199.2504 364.79004 200.04719 366.60742 202.20703 C 369.21869 205.31036 372.79889 205.45414 375.89844 202.58008 C 378.43462 200.22841 378.82609 196.41973 376.82617 193.56445 C 375.26695 191.33835 369.19671 188.39279 366.89844 188.74805 z M 298.98438 190.18945 C 295.33867 190.49615 295.68945 193.18792 295.68945 206.67578 C 295.68945 221.68961 295.76977 222.47922 297.68945 226.53711 C 300.06542 231.55949 301.47497 232.95512 305.71094 234.48047 C 310.1915 236.0939 315.58666 236.01275 318.83398 234.2832 C 321.48259 232.87253 321.51925 232.78971 319.88672 231.91602 C 318.95656 231.41821 317.69841 231.01172 317.0918 231.01172 C 315.81855 231.01172 312.38924 227.53027 310.78711 224.61133 C 310.00438 223.18528 309.57427 218.01977 309.28906 206.61133 L 308.89062 190.61133 L 304.12305 190.36719 C 301.85846 190.25084 300.19961 190.08722 298.98438 190.18945 z M 396.23438 190.21094 C 392.77066 190.21094 390.02008 190.60101 389.44922 191.17188 C 388.0577 192.56338 388.08698 231.88776 389.48047 233.28125 C 390.13753 233.9383 392.49275 234.19378 396.48047 234.04102 L 402.49023 233.8125 L 402.71484 213.8125 C 402.83867 202.8125 402.74221 193.00172 402.5 192.01172 C 402.09351 190.3502 401.61104 190.21094 396.23438 190.21094 z M 427.82812 190.21094 C 425.44495 190.21094 424.03381 190.937 420.64844 193.89844 C 415.32715 198.55337 413.30638 202.50159 412.73047 209.37109 C 411.9197 219.04192 414.8926 226.18625 421.97461 231.58789 C 427.22853 235.59518 433.14252 235.03777 431.0332 230.73438 C 428.95033 226.48496 427.68945 219.49991 427.68945 212.21094 C 427.68945 204.92198 428.95033 197.93691 431.0332 193.6875 C 432.22518 191.25565 431.26204 190.21094 427.82812 190.21094 z M 166.24219 190.22461 C 157.50456 190.23713 154.11219 191.05563 156.49023 192.58008 C 159.79784 194.70041 160.70334 195.67886 162.27148 198.8125 C 163.29369 200.85521 164.52813 202.21094 165.36328 202.21094 C 166.1278 202.21094 168.07645 200.4097 169.69336 198.20703 C 171.31027 196.00436 173.35978 193.69247 174.24805 193.07031 C 177.24244 190.97295 175.09894 190.21191 166.24219 190.22461 z M 187.4707 190.24023 C 185.03047 190.34201 182.74613 190.67575 182.25 191.17188 C 181.55512 191.86676 181.28906 197.5927 181.28906 211.90625 C 181.28906 222.78227 181.50831 232.24933 181.77539 232.94531 C 182.1472 233.91425 183.44454 234.21094 187.31055 234.21094 C 195.55697 234.21094 194.89062 236.14564 194.89062 212.21094 C 194.89062 193.77341 194.7345 191.12302 193.625 190.69727 C 192.50749 190.26843 189.91093 190.13846 187.4707 190.24023 z M 328.63086 190.24023 C 325.01624 190.24817 321.28824 190.48907 320.54883 190.95703 C 319.63211 191.5372 319.88221 192.07652 321.82227 193.70898 C 323.1493 194.8256 325.0965 197.55559 326.15039 199.77539 C 327.58964 202.80688 328.50183 203.8125 329.81445 203.8125 C 331.14144 203.8125 331.69346 203.18521 332.10547 201.21094 C 332.4039 199.78094 333.5099 197.04143 334.5625 195.12305 C 335.6151 193.20467 336.27719 191.31545 336.03516 190.92383 C 335.74733 190.45812 332.24547 190.2323 328.63086 190.24023 z M 443.96289 190.35938 L 440.89062 190.61133 L 440.66602 195.98828 C 440.47833 200.50745 440.70201 201.62388 442.06641 202.98828 C 443.19934 204.12121 444.74005 204.61133 447.16602 204.61133 C 450.8614 204.61133 452.63389 203.34201 453.66797 199.95312 C 455.05527 195.40675 449.48943 189.90505 443.96289 190.35938 z M 66.759766 190.37109 L 61.689453 190.61133 L 61.476562 211.39844 C 61.358933 222.83121 61.436561 232.64199 61.650391 233.19922 C 62.161381 234.53082 71.805766 234.57509 73.128906 233.25195 C 74.640306 231.74055 74.481574 192.33395 72.958984 191.07031 C 72.279284 190.50622 69.808888 190.22675 66.759766 190.37109 z M 210.9668 190.375 C 203.35279 190.06964 202.40798 190.96064 206.57031 194.52344 C 208.32245 196.02321 210.80248 198.90734 212.08203 200.93164 C 214.55352 204.84163 214.713 204.95304 216.32617 203.92969 C 217.06657 203.46 217.29367 201.46562 217.125 196.94141 L 216.89062 190.61133 L 210.9668 190.375 z M 277.96289 190.375 L 272.08984 190.61133 L 271.875 211.39844 C 271.75737 222.83121 271.83695 232.64199 272.05078 233.19922 C 272.56808 234.54727 283.78838 234.59248 285.12891 233.25195 C 286.63684 231.74402 286.48171 192.33278 284.96289 191.07227 C 284.26475 190.49287 281.60484 190.22834 277.96289 190.375 z M 136.59961 190.37891 C 131.08603 190.18272 129.985 190.35673 129.55078 191.48828 C 129.2677 192.22599 129.42079 193.4109 129.89258 194.12109 C 130.36437 194.83129 134.60265 203.0324 139.31055 212.34766 C 144.01845 221.66291 148.54527 230.3933 149.36914 231.74805 C 151.72424 235.62069 152.9032 235.01234 156.4043 228.11328 C 158.89718 223.20095 159.49728 219.9915 158.18945 218.57227 C 157.80426 218.15427 155.33028 213.67133 152.69141 208.61133 C 150.05254 203.55133 146.82199 197.43172 145.51367 195.01172 L 143.13477 190.61133 L 136.59961 190.37891 z M 241.21289 190.4082 C 237.51536 190.29593 234.03128 190.50241 233.4707 190.86719 C 232.40596 191.56003 232.14591 191.00026 244.08984 213.8125 C 252.42944 229.74066 253.28598 231.28211 254.58789 232.7207 C 255.27657 233.48168 256.33311 233.91475 256.93555 233.68359 C 257.95712 233.29157 262.89062 221.75836 262.89062 219.76172 C 262.89063 218.95836 256.95802 207.28216 250.31641 195.01172 L 247.93555 190.61133 L 241.21289 190.4082 z M 104.89062 190.61133 L 104.67578 211.39844 C 104.55815 222.83121 104.64396 232.65775 104.86523 233.23438 C 105.15797 233.9973 106.84934 234.21807 111.07812 234.04688 L 116.89062 233.8125 L 116.89062 212.21094 L 116.89062 190.61133 L 110.89062 190.61133 L 104.89062 190.61133 z M 344.62109 199.11133 C 341.68485 198.71864 340.1071 200.09757 341.00195 202.8125 C 342.30878 206.77732 344.6519 211.0803 346.65039 213.18555 C 349.18307 215.85351 356.73557 220.61133 358.4375 220.61133 C 359.05524 220.61133 360.57857 221.12038 361.82422 221.74219 C 363.06988 222.36401 365.52906 223.49716 367.28906 224.25977 C 369.04906 225.02239 371.02945 225.93156 371.68945 226.28125 C 372.34945 226.63094 373.87984 226.93904 375.08984 226.96484 C 377.15699 227.00905 377.28906 226.80392 377.28906 223.5625 C 377.28906 221.66514 376.60012 218.69358 375.75781 216.96094 C 373.04783 211.3865 369.4393 208.86892 356.89062 203.79688 C 353.37062 202.37413 349.35525 200.71585 347.96875 200.11133 C 346.72962 199.57107 345.59984 199.24223 344.62109 199.11133 z M 208.56836 203.46094 C 207.92575 203.06378 206.01811 204.58379 199.85742 210.4043 L 198.02734 212.13477 L 200.24023 213.29297 C 201.45709 213.93055 203.7097 215.64046 205.24805 217.0918 C 207.2095 218.94232 208.22866 219.44414 208.65625 218.77148 C 209.51787 217.41612 209.44072 204.00009 208.56836 203.46094 z M 450.90234 219.32031 C 449.83883 219.12989 448.47574 220.30024 447.78516 222.28125 C 447.33613 223.56935 445.13254 226.56494 442.88867 228.9375 C 440.15756 231.82525 439.15321 233.39553 439.84961 233.68555 C 440.42178 233.92385 443.41023 234.04904 446.49023 233.96484 L 452.08984 233.8125 L 452.29492 227.41211 C 452.40748 223.89211 452.19782 220.54927 451.83008 219.98438 C 451.57838 219.59771 451.25685 219.38379 450.90234 219.32031 z M 215.33594 220.05664 C 214.54494 220.24553 213.54967 221.1089 212.26562 222.70312 C 210.88845 224.41297 208.20059 227.40166 206.29492 229.3457 C 203.73346 231.95875 203.10035 233.05507 203.86133 233.55078 C 204.42749 233.91955 207.59062 234.13042 210.89062 234.01758 L 216.89062 233.8125 L 217.12305 227.19922 C 217.3162 221.70694 217.13651 220.50199 216.0625 220.08984 C 215.84146 220.00502 215.5996 219.99368 215.33594 220.05664 z M 92.722656 220.62891 C 91.909626 220.6387 89.906214 222.5823 88.089844 225.12305 C 86.329844 227.58495 84.050327 230.26131 83.023438 231.07227 C 81.996557 231.88323 81.397106 232.93788 81.691406 233.41406 C 82.017866 233.94229 84.459901 234.18749 87.957031 234.04492 L 93.689453 233.8125 L 93.921875 227.21094 C 94.129615 221.31005 94.003286 220.61351 92.722656 220.62891 z M 341.69727 220.8457 C 341.39995 221.01474 341.17126 221.3645 340.97461 221.87695 C 340.30431 223.62383 340.36163 233.01789 341.04688 233.70312 C 342.0779 234.73415 359.12944 233.90364 359.49414 232.80469 C 359.69468 232.20039 358.84878 231.60296 357.37695 231.30859 C 356.02901 231.039 354.51351 230.32181 354.00977 229.71484 C 353.50602 229.10787 352.66535 228.61133 352.14062 228.61133 C 351.61591 228.61133 349.40969 226.816 347.23828 224.62109 C 344.10239 221.45126 342.58922 220.33858 341.69727 220.8457 z M 235.44922 221.41211 C 235.25876 221.41211 234.1008 222.9425 232.87695 224.8125 C 231.6531 226.6825 229.5886 229.17612 228.28906 230.35547 C 226.98953 231.53481 226.1642 232.88481 226.45508 233.35547 C 227.08856 234.38044 244.98709 234.54835 245.61328 233.53516 C 245.84324 233.16307 244.42494 231.13244 242.46094 229.02344 C 240.49695 226.91444 238.89062 224.71234 238.89062 224.12891 C 238.89063 223.23338 236.58338 221.41211 235.44922 221.41211 z M 256.89062 261.32227 C 152.72014 261.32227 48.548634 261.67207 47.849609 262.37109 C 46.850789 263.36992 46.49001 273.84023 47.375 276.14648 C 47.81608 277.29592 67.021681 277.41211 256.89062 277.41211 C 446.75958 277.41211 465.96322 277.29592 466.4043 276.14648 C 467.28929 273.84023 466.92852 263.36992 465.92969 262.37109 C 465.23066 261.67207 361.06111 261.32227 256.89062 261.32227 z " />
  </g>
</svg>
