<?xml version="1.0" encoding="UTF-8" standalone="no"?>
<!-- Created with Inkscape (http://www.inkscape.org/) -->

<svg
   version="1.1"
   id="svg1303"
   width="841.59998"
   height="261.60001"
   viewBox="0 0 841.59998 261.60001"
   sodipodi:docname="logo_tcc2.svg"
   inkscape:version="1.1.2 (b8e25be833, 2022-02-05)"
   xmlns:inkscape="http://www.inkscape.org/namespaces/inkscape"
   xmlns:sodipodi="http://sodipodi.sourceforge.net/DTD/sodipodi-0.dtd"
   xmlns="http://www.w3.org/2000/svg"
   xmlns:svg="http://www.w3.org/2000/svg">
  <defs
     id="defs1307" />
  <sodipodi:namedview
     id="namedview1305"
     pagecolor="#505050"
     bordercolor="#eeeeee"
     borderopacity="1"
     inkscape:pageshadow="0"
     inkscape:pageopacity="0"
     inkscape:pagecheckerboard="0"
     showgrid="false"
     inkscape:zoom="0.60661967"
     inkscape:cx="211.00536"
     inkscape:cy="180.50849"
     inkscape:window-width="1920"
     inkscape:window-height="991"
     inkscape:window-x="-9"
     inkscape:window-y="-9"
     inkscape:window-maximized="1"
     inkscape:current-layer="g1309" />
  <g
     inkscape:groupmode="layer"
     inkscape:label="Image"
     id="g1309">
    <path
       style="fill:#ffffff;stroke-width:0.8"
       d="m 91.624147,262.68613 c -0.88,-0.36017 -2.28105,-1.41211 -3.11344,-2.33763 -2.11214,-2.34845 -1.96091,-9.91197 0.29223,-14.61589 3.32246,-6.93634 2.64408,-6.64335 16.416003,-7.09019 8.58348,-0.2785 12.64364,-0.71562 13.3667,-1.43908 0.64229,-0.64264 1.14234,-3.69505 1.31066,-8.00039 0.24096,-6.16346 0.0738,-7.21342 -1.45807,-9.16092 -1.69274,-2.15199 -1.91516,-2.19995 -10.27214,-2.21546 -14.765353,-0.0274 -24.317043,-1.97449 -34.021713,-6.93529 -6.56048,-3.35356 -7.48443,-4.04871 -13.69751,-10.30557 -8.46911,-8.5288 -14.30366,-20.85879 -16.3529,-34.55814 -0.5132,-3.43082 -0.86982,-18.72428 -0.86982,-37.30204 0,-26.06859 0.19346,-31.647753 1.12417,-32.420183 0.70547,-0.58549 3.46155,-0.84544 7.4,-0.69795 l 6.27583,0.23502 0.44221,36.800003 c 0.28613,23.81159 0.76358,37.91673 1.35275,39.96405 1.61068,5.59694 5.28199,11.70244 10.30393,17.13576 4.96484,5.37155 9.511,8.32457 17.7497,11.5296 4.44853,1.73057 5.33807,1.77059 39.351413,1.77059 32.0836,0 35.17324,-0.11955 39.58168,-1.53161 5.0878,-1.62965 12.40376,-5.61313 16.2448,-8.84515 3.37876,-2.84304 10.03924,-12.85437 12.25686,-18.42324 1.89418,-4.75665 1.91509,-5.13239 2.31406,-41.6 l 0.4026,-36.800003 5.874,-0.23655 c 3.80568,-0.15325 6.29282,0.11106 7.06347,0.75063 1.02929,0.85424 1.14494,5.787803 0.85886,36.636553 -0.36996,39.89273 -0.43207,40.4117 -6.2874,52.53286 -2.68458,5.55736 -7.09013,12.27888 -9.90893,15.11795 -3.1442,3.16682 -10.08188,8.23382 -14.24221,10.40194 -7.87409,4.10353 -16.82405,6.04167 -30.33065,6.56819 -15.05442,0.58685 -15.02714,0.5675 -15.02714,10.6596 0,10.33189 0.0517,10.36883 14.51197,10.36883 h 11.31198 l 2.38772,2.67363 c 3.00468,3.36448 4.56081,7.77602 4.57628,12.97347 0.0126,4.24593 -0.70556,5.66494 -3.96596,7.83586 -1.76363,1.17431 -5.7519,1.31155 -36.8,1.26633 -19.15209,-0.0279 -35.541993,-0.3454 -36.421993,-0.70558 z m 163.775373,-39.44371 0.22462,-9.8 h 290 289.99999 l 0.22464,9.8 0.22464,9.8 H 545.62414 255.1749 Z M 104.02415,186.10949 c -10.908433,-1.07866 -23.418023,-9.59206 -28.270003,-19.23918 -4.53487,-9.0166 -4.53,-8.95273 -4.53,-59.33954 0,-31.572543 0.28794,-47.687033 0.89837,-50.276873 1.37136,-5.8183 4.48865,-13.15084 6.72422,-15.81687 5.837,-6.96091 10.60088,-10.794619 13.41369,-10.794619 0.61366,0 1.80154,0.75729 2.63973,1.68287 1.41822,1.566069 1.55175,3.576659 1.92399,28.970039 l 0.4,27.28717 2.14533,1.20343 c 1.956513,1.09751 2.288363,1.07398 3.770433,-0.26726 1.56391,-1.41533 1.63373,-2.49856 1.85467,-28.77347 0.20794,-24.73002 0.36976,-27.58479 1.7173,-30.295559 1.89413,-3.81032 5.98502,-5.18894 10.9677,-3.69609 5.52592,1.6556 5.54457,1.76632 5.54457,32.909699 v 27.50027 l 1.93194,1.81497 c 2.40133,2.25593 4.80522,1.67952 6.47683,-1.55303 0.98511,-1.90499 1.19123,-6.92007 1.19123,-28.98382 0,-19.64939 0.26294,-27.237409 0.9978,-28.794559 1.94885,-4.12959 11.79121,-4.58163 14.77676,-0.67868 0.7209,0.94243 0.98117,8.373459 1,28.551109 0.0214,22.97679 0.22056,27.66822 1.2631,29.75805 1.65652,3.32057 4.0599,4.02257 6.25636,1.82741 1.65797,-1.65699 1.71723,-2.47457 2.10598,-29.05379 l 0.4,-27.348829 2.13709,-1.19881 c 2.82566,-1.58506 4.94119,-0.47236 11.22811,5.905579 5.65051,5.73233 9.30628,12.78078 10.71772,20.66415 1.53727,8.58619 1.48944,88.166793 -0.0582,96.850193 -2.10266,11.79732 -8.05274,20.61111 -17.75184,26.2956 -7.9836,4.67906 -12.615,5.30514 -38.67287,5.22783 -11.21999,-0.0333 -21.65999,-0.18511 -23.19999,-0.33739 z M 257.38919,171.7408 c -0.31077,-0.31077 -0.56505,-14.72505 -0.56505,-32.03172 v -31.46666 h 6.40918 6.40918 l -0.20918,31.8 -0.20918,31.8 -5.63495,0.23172 c -3.09922,0.12744 -5.88922,-0.0226 -6.2,-0.33334 z m 31.15202,-0.048 c -0.30229,-0.30228 0.66376,-1.83228 2.14676,-3.4 1.48301,-1.56771 4.19033,-4.979 6.01627,-7.58062 l 3.3199,-4.73023 v 8.13024 8.13023 h -5.46666 c -3.00667,0 -5.71399,-0.24732 -6.01627,-0.54961 z m 32.84798,0.048 c -0.31078,-0.31077 -0.56505,-14.72505 -0.56505,-32.03172 v -31.46666 h 6.40918 6.40918 l -0.20918,31.8 -0.20918,31.8 -5.63495,0.23172 c -3.09922,0.12744 -5.88922,-0.0226 -6.2,-0.33334 z m 117.23495,-0.0119 c -0.77598,-0.32577 -1,-7.48371 -1,-31.95315 v -31.53333 h 6.80918 6.80918 l -0.20918,31.8 -0.20918,31.8 -5.6,0.15314 c -3.08,0.0842 -6.05,-0.0358 -6.6,-0.26666 z m 31.53572,-0.0865 c -0.49501,-0.82799 13.47767,-15.51994 14.13499,-14.86262 0.29111,0.29111 0.52929,3.67077 0.52929,7.51036 0,5.62783 -0.2453,7.0752 -1.26543,7.46667 -1.81403,0.6961 -12.97124,0.60084 -13.39885,-0.11441 z m 33.73289,0.20194 c -0.21894,-0.21893 1.19636,-2.0621 3.14512,-4.09593 1.94875,-2.03383 4.55992,-5.3011 5.8026,-7.26061 l 2.25944,-3.56275 2.76214,4.25868 c 1.51918,2.34226 4.05313,5.48571 5.63099,6.98543 1.57786,1.49972 2.6816,3.02972 2.45275,3.4 -0.43595,0.70538 -21.36173,0.96649 -22.05304,0.27518 z m 67.89542,-0.10457 c -0.31022,-0.31023 -0.56403,-14.72404 -0.56403,-32.03071 V 108.2424 h 6.80917 6.80919 l -0.20919,31.8 -0.20917,31.8 -6.03597,0.23069 c -3.31979,0.12689 -6.28979,-0.0231 -6.6,-0.33332 z m 48.45597,-0.82053 c -3.83288,-1.3572 -8.46694,-5.62126 -10.16965,-9.35766 -2.48646,-5.45626 -2.84151,-9.3387 -2.84589,-31.11918 l -0.004,-22.2 h 7.14789 7.1479 l 0.2521,24.6 c 0.28189,27.50644 0.19091,27.0289 6.18015,32.43981 1.77739,1.60577 4.14069,3.14775 5.25179,3.42661 2.50584,0.62893 2.63329,2.38266 0.22017,3.02935 -3.10967,0.83336 -9.66387,0.42612 -13.18,-0.81893 z m 54.71333,0.78982 c -0.65229,-0.65228 -0.71915,-13.86666 -0.0702,-13.86666 0.25474,0 2.54811,1.81344 5.09639,4.02986 2.54828,2.21643 6.99628,5.24 9.88445,6.71906 2.88817,1.47905 5.03479,2.90561 4.77027,3.17013 -0.6601,0.66011 -19.01732,0.61124 -19.68094,-0.0524 z m 71.66666,0.0198 c -0.77598,-0.32577 -1,-7.48371 -1,-31.95315 v -31.53333 h 6.80918 6.80918 l -0.20918,31.8 -0.20918,31.8 -5.6,0.15314 c -3.08,0.0842 -6.05,-0.0358 -6.6,-0.26666 z m 74.2,-0.0972 c 0,-0.37148 1.3069,-1.91604 2.90422,-3.43236 1.59733,-1.51631 4.47474,-4.86305 6.39434,-7.4372 4.10744,-5.5082 4.46608,-5.13125 4.13592,4.34714 l -0.23448,6.73313 -6.6,0.23235 c -3.63,0.1278 -6.6,-0.0716 -6.6,-0.44306 z m -20.83742,-0.94539 c -5.4633,-1.65868 -12.07916,-7.66321 -15.25465,-13.84506 -4.74987,-9.24678 -5.10519,-22.62911 -0.85001,-32.01372 3.8216,-8.42835 10.37323,-14.35105 17.93694,-16.21508 l 2.19485,-0.54092 -2.08096,4.54541 c -1.14452,2.49997 -2.56938,6.58842 -3.16635,9.08543 -1.30121,5.4427 -1.52877,30.18241 -0.32139,34.94004 1.60402,6.32053 2.7281,9.64246 4.12825,12.2 1.51318,2.76399 1.19378,2.99167 -2.58668,1.8439 z m -410.94272,-2.6439 c -0.69002,-0.88913 -11.27885,-21.73402 -25.3991,-50 l -4.89558,-9.8 h 7.7363 7.73628 l 3.39564,6.6 c 1.86759,3.63 4.92684,9.48 6.79834,13 9.06323,17.0466 13.20875,25.26204 13.21368,26.18641 0.007,1.31648 -6.6498,14.98013 -7.30746,14.9991 -0.27612,0.008 -0.85127,-0.43551 -1.2781,-0.98551 z m 149.35736,-10.40852 c -3.19172,-6.26531 -6.60824,-12.83148 -7.59226,-14.59148 -0.98401,-1.76 -5.44298,-10.32228 -9.90882,-19.02729 l -8.11969,-15.82729 8.55489,0.22729 8.55488,0.22729 1.32904,2.4 c 1.19798,2.16334 6.19483,11.73809 17.1996,32.95713 l 3.8156,7.35715 -3.39706,8.45241 c -1.86839,4.64881 -3.67516,8.62427 -4.01505,8.83433 -0.33989,0.21007 -3.2294,-4.74423 -6.42113,-11.00954 z m 168.82278,-3.43983 c -6.82,-2.82356 -13.95274,-5.92608 -15.85054,-6.89448 -7.7133,-3.93588 -15.97375,-14.6342 -16.36634,-21.19647 -0.17016,-2.84411 -0.0416,-3.04102 1.81688,-2.78265 1.1,0.15294 2.36,0.54095 2.8,0.86225 0.44,0.3213 2.6,1.23886 4.8,2.03901 2.2,0.80015 5.44,2.08074 7.2,2.84577 1.76,0.76503 5.36,2.2116 8,3.2146 11.38108,4.32399 16.89155,8.71742 20.51997,16.36032 2.65363,5.58959 3.08315,10.83286 0.88003,10.7427 -0.77,-0.0315 -6.98,-2.36748 -13.8,-5.19105 z M 468.82414,143.01039 c -6.16729,-4.71064 -6.01713,-4.24434 -2.23341,-6.93522 1.88838,-1.34296 4.24341,-3.17747 5.23341,-4.0767 l 1.8,-1.63496 v 7.73946 c 0,4.25669 -0.27,7.72093 -0.6,7.69829 -0.33,-0.0226 -2.22,-1.27852 -4.2,-2.79087 z M 712.16032,125.0359 c -2.34623,-1.95534 -3.30525,-5.3387 -2.32615,-8.20648 0.41555,-1.21714 0.61877,-3.64714 0.45161,-5.4 -0.27216,-2.85386 -0.11749,-3.187 1.47957,-3.187 4.05137,0 9.82241,4.04944 11.48239,8.057 2.79943,6.75841 -5.55856,13.3442 -11.08742,8.73648 z m 112.8554,0.37067 c -2.28569,-1.60095 -3.32895,-5.60204 -2.37725,-9.11715 0.40994,-1.51414 0.55205,-3.94414 0.3158,-5.4 -0.52096,-3.21032 0.36144,-3.36424 5.48354,-0.95656 4.88904,2.29812 7.58632,5.64779 7.58632,9.42126 0,5.69097 -6.45648,9.24074 -11.00841,6.05245 z m -343.51444,-4.88196 c -1.12434,-1.69521 -4.08425,-5.15219 -6.57759,-7.68219 l -4.53333,-4.6 h 7.21689 7.21689 l -0.0562,6.2 c -0.0309,3.41 -0.31861,6.86698 -0.6393,7.68219 -0.50509,1.28397 -0.85645,1.07001 -2.62732,-1.6 z m 168.52286,-3.18479 c -1.76,-2.88249 -4.21763,-6.10861 -5.46139,-7.16915 l -2.26137,-1.92825 h 9.68532 9.68533 l -1.63861,2.21634 c -0.90124,1.21898 -2.51061,4.36186 -3.57639,6.98414 -1.06578,2.6223 -2.22918,4.85107 -2.58534,4.95282 -0.35616,0.10175 -2.08756,-2.1734 -3.84755,-5.0559 z m -241.89306,1.12349 c -0.9826,-2.02977 -3.38059,-5.15984 -5.32887,-6.95569 l -3.54232,-3.2652 h 11.45412 11.45413 l -4.472,4.6 c -2.4596,2.53 -5.21597,5.66006 -6.12526,6.9557 l -1.65326,2.3557 z M 256.58142,63.683277 c -1.15292,-0.29938 -1.39398,-1.04418 -1.2,-3.70775 l 0.24272,-3.33311 290.24388,-0.2011 290.24387,-0.20109 -0.24392,3.80109 -0.24384,3.8011 -288.79999,0.10775 c -158.84,0.0593 -289.44923,-0.0608 -290.24272,-0.26689 z"
       id="path1313" />
  </g>
</svg>
