<?xml version="1.0" encoding="UTF-8" standalone="no"?>
<!-- Created with Inkscape (http://www.inkscape.org/) -->

<svg
   version="1.1"
   id="svg822"
   width="585.59998"
   height="314.39999"
   viewBox="0 0 585.59998 314.39999"
   sodipodi:docname="mic_logo.svg"
   inkscape:version="1.1.2 (b8e25be833, 2022-02-05)"
   xmlns:inkscape="http://www.inkscape.org/namespaces/inkscape"
   xmlns:sodipodi="http://sodipodi.sourceforge.net/DTD/sodipodi-0.dtd"
   xmlns="http://www.w3.org/2000/svg"
   xmlns:svg="http://www.w3.org/2000/svg">
  <defs
     id="defs826" />
  <sodipodi:namedview
     id="namedview824"
     pagecolor="#505050"
     bordercolor="#eeeeee"
     borderopacity="1"
     inkscape:pageshadow="0"
     inkscape:pageopacity="0"
     inkscape:pagecheckerboard="0"
     showgrid="false"
     inkscape:zoom="1.2329235"
     inkscape:cx="304.9662"
     inkscape:cy="135.04488"
     inkscape:window-width="1920"
     inkscape:window-height="991"
     inkscape:window-x="-9"
     inkscape:window-y="-9"
     inkscape:window-maximized="1"
     inkscape:current-layer="g828" />
  <g
     inkscape:groupmode="layer"
     inkscape:label="Image"
     id="g828">
    <path
       id="rect2136"
       style="fill:#ffffff;stroke-width:0.927289"
       d="M 278.00391 35.287109 C 276.23458 35.333509 274.53137 35.62604 274.21875 35.9375 C 273.90615 36.24897 273.47196 43.944583 273.25195 53.039062 C 272.86808 68.907822 272.78746 69.576172 271.25195 69.576172 C 269.71645 69.576172 269.63583 68.907822 269.25195 53.039062 C 269.03196 43.944582 268.62359 36.278703 268.3457 36.001953 C 268.06779 35.725203 266.31579 35.437581 264.45312 35.363281 C 261.65263 35.251601 260.73603 35.610973 259.1582 37.445312 C 257.29311 39.613622 257.25195 40.005517 257.25195 54.773438 C 257.25196 68.480047 256.66544 72.975559 255.33398 69.505859 C 255.06788 68.812388 254.84017 62.063776 254.82617 54.509766 C 254.79917 39.921396 254.34713 37.974609 250.99414 37.974609 C 250.06502 37.974609 247.58977 39.673771 245.45508 41.775391 C 238.93986 48.189771 238.70931 49.638995 239.00977 82.490234 C 239.22481 106.00242 239.45983 110.68864 240.50781 112.375 C 241.19139 113.475 242.40742 115.45539 243.20898 116.77539 C 244.64455 119.13947 250.44205 123.45286 253.62305 124.52344 C 254.51849 124.82484 263.02008 125.00523 272.51562 124.92383 L 289.78125 124.77539 L 294.31641 121.34961 C 296.81087 119.46536 298.85156 117.51281 298.85156 117.01172 C 298.85156 116.51061 299.34055 115.53254 299.93945 114.83789 C 300.53836 114.14324 301.64941 111.22933 302.4082 108.36133 C 303.61171 103.81241 303.75039 99.828582 303.49805 77.160156 L 303.20898 51.175781 L 300.99414 47.175781 C 298.43072 42.546531 293.66199 37.974609 291.39453 37.974609 C 288.15751 37.974609 287.70386 40.015521 287.66406 54.775391 C 287.62886 67.846151 287.04989 72.037471 285.49414 70.488281 C 285.14022 70.135851 284.67117 62.68778 284.45117 53.9375 C 283.99489 35.78948 283.76805 35.135969 278.00391 35.287109 z M 312.61719 73.328125 L 309.65039 73.576172 L 309.16016 92.375 C 308.64888 111.96808 307.9188 117.92049 305.5625 121.71484 C 303.64448 124.80343 300.32189 128.375 299.36523 128.375 C 298.9322 128.375 298.00911 128.86562 297.31445 129.46484 C 293.86964 132.43641 288.59064 133.17578 270.80664 133.17578 C 252.87568 133.17578 251.42838 132.96737 244.85156 129.4375 C 239.58486 126.61078 234.85156 120.24929 234.85156 115.99805 C 234.85156 114.93757 234.49078 113.8481 234.05078 113.57617 C 233.55445 113.26941 233.24628 105.88759 233.23828 94.128906 C 233.23128 83.704873 232.90925 74.67485 232.52148 74.0625 C 231.62771 72.65107 224.59814 73.295492 223.50977 74.888672 C 223.0774 75.521652 222.91895 84.329526 223.12891 95.974609 C 223.5076 116.97949 223.69901 118.22885 227.78711 126.24219 C 230.26034 131.09014 236.84135 136.94096 243.32031 140.05273 C 248.43367 142.50861 249.67243 142.77539 255.97266 142.77539 C 264.89415 142.77539 266.05078 143.37179 266.05078 147.97461 C 266.05078 152.44599 264.83809 153.17578 257.39258 153.17578 C 250.1541 153.17578 248.65713 154.33415 247.96289 160.47656 C 247.52014 164.39378 247.67423 165.19767 249.15234 166.67578 C 250.79427 168.31774 251.52561 168.375 271.09766 168.375 C 294.61577 168.375 294.48293 168.4097 294.39453 162.16406 C 294.35583 159.43045 293.78977 157.45487 292.54102 155.70117 C 290.83153 153.30041 290.47684 153.17446 285.39648 153.16406 C 276.85389 153.14656 276.45117 152.91249 276.45117 147.97461 C 276.45117 142.94931 276.74008 142.80351 286.60742 142.78711 C 292.35777 142.77711 293.87948 142.44355 299.00586 140.07031 C 305.7478 136.94915 312.15741 131.24872 314.86133 125.96875 C 317.98364 119.87182 318.84881 112.7209 318.84961 93.003906 C 318.85053 75.524763 318.78841 74.798121 317.2168 73.957031 C 316.31817 73.476101 314.24856 73.192675 312.61719 73.328125 z " />
  </g>
</svg>
